<svg id="Camada_4" data-name="Camada 4" xmlns="http://www.w3.org/2000/svg" viewBox="0 0 547.03 505.03"><defs><style>.cls-1,.cls-14{fill:#47261e;}.cls-2{fill:#e0f780;}.cls-11,.cls-12,.cls-16,.cls-2,.cls-4,.cls-6,.cls-7,.cls-8{stroke:#47261e;}.cls-16,.cls-2,.cls-4,.cls-6,.cls-7,.cls-8{stroke-miterlimit:10;stroke-width:3px;}.cls-3{fill:#a6b75f;}.cls-4{fill:#cce1fd;}.cls-5{fill:#65707e;}.cls-6{fill:#f6c669;}.cls-7{fill:none;}.cls-8{fill:red;}.cls-9{fill:#6c783e;}.cls-10{fill:#bf0000;}.cls-11{fill:#7b7666;}.cls-11,.cls-12{stroke-linejoin:round;stroke-width:10px;}.cls-12{fill:#fbf0cf;}.cls-13{fill:#bbb39a;}.cls-14{font-size:90px;font-family:ComicSansMS-Bold, Comic Sans MS;font-weight:700;}.cls-15{fill:#99a8bd;}.cls-16{fill:#662d91;}.cls-17{fill:#391951;}.cls-18{fill:#b6934e;}</style></defs><path class="cls-1" d="M441.14,89l-13.23,54.68c-1.39,5.82,2.62,8.6,5.41,5h0L448,91.19Z"/><rect class="cls-2" x="1.5" y="64.53" width="316" height="295" rx="5"/><path class="cls-3" d="M136.79,66s-7.67,17.85,5.35,30.22h9.53S142,83.94,147.86,66Z"/><path class="cls-4" d="M544.5,140.67v157.5a6.16,6.16,0,0,1-1.3,3.78l-68.64,87.86a12.29,12.29,0,0,1-9.68,4.72H384.5l-2.72-260H538.36A6.14,6.14,0,0,1,544.5,140.67Z"/><path class="cls-5" d="M542.24,300.72c1.85-2.8,1.19-12.74-3-9.42l-51.64-15.95-10.07,5.2-5,109.22"/><path class="cls-6" d="M89.5,296.53h299a0,0,0,0,1,0,0v202a5,5,0,0,1-5,5H94.5a5,5,0,0,1-5-5v-202A0,0,0,0,1,89.5,296.53Z"/><path class="cls-7" d="M544,293l-48.16-15.87c-7.69-2.54-16.48,1.13-17.7,7.39l-4.69,76.58"/><path class="cls-3" d="M316,86.58,65.21,89a5,5,0,0,0-4.95,5V357.92H72.7V101.06l4.81-3.68L316,97.17Z"/><path class="cls-1" d="M36.14,137.87l207.3-2c3.21,0,3.22-5,0-5l-207.3,2c-3.22,0-3.23,5,0,5Z"/><path class="cls-1" d="M70.43,180.66l207.3-2c3.22,0,3.22-5,0-5l-207.3,2c-3.21,0-3.22,5,0,5Z"/><path class="cls-1" d="M46.79,226.81l207.3-2c3.22,0,3.22-5,0-5l-207.3,2c-3.21,0-3.22,5,0,5Z"/><path class="cls-1" d="M60.26,273l207.3-2c3.21,0,3.22-5,0-5l-207.3,2c-3.22,0-3.23,5,0,5Z"/><path d="M159.4,423.25l207.3-2c3.21,0,3.22-5,0-5l-207.3,2c-3.22,0-3.23,5,0,5Z"/><ellipse class="cls-8" cx="446.5" cy="89.03" rx="23" ry="21.5"/><polygon class="cls-9" points="169.96 66.08 164.5 80.38 207.33 65.97 169.96 66.08"/><path class="cls-1" d="M174.38,18.9,161.15,73.59c-1.39,5.82,2.62,8.59,5.41,5h0l14.66-57.52Z"/><ellipse class="cls-8" cx="177.5" cy="23.03" rx="23" ry="21.5"/><path class="cls-10" d="M444.14,69.33s22.81,17.56,4.28,40c0,0,22.82-1.86,20.38-23.86C468.8,85.49,464.75,66.62,444.14,69.33Z"/><path class="cls-11" d="M364.74,420.36c-11.88-9.31-18.45-24.55-24.13-38.09a3.84,3.84,0,0,1,1-4.75l-.91-1.19L21.27,374.55s1.9,46.52,44.31,58.39l317.23-1.54-3.11-4.07A39.45,39.45,0,0,1,364.74,420.36Z"/><path class="cls-1" d="M388.24,258.06l112-2c3.22-.06,3.23-5.06,0-5l-112,2c-3.22.05-3.23,5.05,0,5Z"/><path class="cls-1" d="M398.57,219.25l112-2c3.21-.06,3.22-5.06,0-5l-112,2c-3.22.06-3.23,5.06,0,5Z"/><path class="cls-1" d="M393,181.67l112-2c3.21-.06,3.22-5.06,0-5l-112,2c-3.21.06-3.22,5.06,0,5Z"/><path class="cls-12" d="M77.51,101.06V374.55H338.92s11.16,59.52,57.57,58.37c0,0,54,4.77,53.16-45.07l.83-286.79H209.25s-24.4,23.61-52.69,0Z"/><path class="cls-13" d="M143.11,105.81s16.77,28.19,56.94,18-1.24.3-1.24.3l38.25,31.37s13.81-2.53,12-13.93-37-34.21-37-34.21Z"/><path class="cls-13" d="M273,105.81s30.2,177.12-190,180.3V369H343.47s8.51,65.39,60.79,57.87c0,0,47,6,39.88-57.87l.1-263.12Z"/><text class="cls-14" transform="translate(132.98 267.51)">TODO</text><path class="cls-1" d="M202.53,305.43l140.94-2c6.43-.09,6.45-10.09,0-10l-140.94,2c-6.43.1-6.45,10.1,0,10Z"/><path class="cls-1" d="M212.58,340.74l98-1.21c6.43-.08,6.45-10.08,0-10l-98,1.21c-6.43.08-6.44,10.08,0,10Z"/><path class="cls-1" d="M181,88.81l55.42,59.65c5.92,6.31,13.95-.58,12.45-8.55h0L191.38,75.58Z"/><polygon class="cls-15" points="455.43 136.25 454.58 393.02 460.15 393.02 463.12 136.25 455.43 136.25"/><path class="cls-10" d="M176.79,3.1s19.8,15.05,1.26,37.51c0,0,23.27,3.89,21.95-20.41C200,20.2,197.93,2.17,176.79,3.1Z"/><circle class="cls-16" cx="185.09" cy="76.96" r="38.33"/><path class="cls-17" d="M176.79,40.91A54.84,54.84,0,0,1,180.07,56c1.84,25.2-14.57,44-19.5,49.24a39.53,39.53,0,0,0,42.32,4.15c13.23-6.77,19.58-21.29,19.46-36.24C222.35,73.14,215.57,35.11,176.79,40.91Z"/><polygon class="cls-18" points="91.01 447.84 386.95 447.84 386.95 437.16 381.78 436.03 91.01 437.44 91.01 447.84"/></svg>