<?xml version="1.0" encoding="UTF-8"?><svg id="a" xmlns="http://www.w3.org/2000/svg" viewBox="0 0 547.03 505.04"><defs><style>.b{fill:#65c8d0;}.b,.c,.d,.e,.f,.g,.h,.i,.j,.k,.l,.m{stroke:#47261e;}.b,.c,.d,.f,.g,.h,.i,.j,.l,.m{stroke-miterlimit:10;}.b,.c,.e{stroke-width:5px;}.c{fill:#ed6b6b;}.d{fill:none;}.d,.h,.i,.j,.l,.m{stroke-width:3px;}.n{fill:#f15a24;}.o{fill:#fcee21;}.p{fill:#7d93b0;}.q{fill:#65707e;}.r{fill:#6c783e;}.s{fill:#97aa47;}.t{fill:#7d7610;}.u{fill:#a98337;}.v{fill:#b1421a;}.w{fill:#bf0000;}.x{fill:#ad4e4e;}.y{fill:#88ac9d;}.a`,.aa,.j{fill:#47261e;}.ab{fill:#4e9aa5;}.e{fill:#fbe78f;}.e,.k{stroke-linejoin:round;}.f{fill:#79727a;}.f,.k{stroke-width:10px;}.g{fill:#ddf9ed;stroke-width:7px;}.aa{font-family:ComicSansMS-Bold, Comic Sans MS;font-size:80px;letter-spacing:-.16em;}.h{fill:#e0f780;}.i{fill:#cce1fd;}.k{fill:#6cd6e5;}.l{fill:red;}.m{fill:#f6c669;}</style></defs><polygon class="p" points="505.98 135.39 505.98 278.29 519.65 282.2 519.65 135.39 505.98 135.39"/><path class="a`" d="M398.57,219.26l112.01-2.01c3.21-.06,3.22-5.06,0-5l-112.01,2.01c-3.21,.06-3.22,5.06,0,5h0Z"/><g><path class="i" d="M544.5,140.69v157.49c0,1.37-.46,2.7-1.3,3.78l-68.64,87.86c-2.33,2.98-5.9,4.72-9.68,4.72h-80.38l-2.72-260h156.58c3.39,0,6.14,2.75,6.14,6.14Z"/><path class="a`" d="M441.14,89.04l-13.23,54.68c-1.39,5.82,2.62,8.6,5.41,5.01h0l14.66-57.53-6.84-2.16Z"/><rect class="h" x="1.5" y="64.54" width="316" height="295" rx="5" ry="5"/><path class="q" d="M542.24,300.74c1.84-2.8,1.18-12.75-3-9.43l-51.64-15.95-10.07,5.21-4.98,109.22"/><path class="m" d="M89.5,296.54H388.5v202c0,2.76-2.24,5-5,5H94.5c-2.76,0-5-2.24-5-5v-202h0Z"/><path class="d" d="M544.01,293.05l-48.16-15.87c-7.69-2.54-16.48,1.13-17.7,7.39l-4.69,76.58"/><ellipse class="l" cx="446.5" cy="89.04" rx="23" ry="21.5"/><path class="a`" d="M392.97,181.68l112.01-2.01c3.21-.06,3.22-5.06,0-5l-112.01,2.01c-3.21,.06-3.22,5.06,0,5h0Z"/><polygon class="r" points="169.96 66.09 164.5 80.39 207.33 65.98 169.96 66.09"/><path class="a`" d="M174.38,18.92l-13.23,54.68c-1.39,5.82,2.62,8.6,5.41,5.01h0l14.66-57.53-6.84-2.16Z"/><ellipse class="l" cx="177.5" cy="23.04" rx="23" ry="21.5"/><path class="w" d="M444.14,69.34s22.82,17.56,4.28,40.02c0,0,22.81-1.85,20.38-23.86,0,0-4.05-18.88-24.67-16.17Z"/><path class="a`" d="M388.24,258.07l112.01-2.01c3.21-.06,3.22-5.06,0-5l-112.01,2.01c-3.21,.06-3.22,5.06,0,5h0Z"/><path class="w" d="M176.79,3.11s19.79,15.05,1.26,37.51c0,0,23.26,3.89,21.95-20.41,0,0-2.08-18.03-23.21-17.1Z"/><path class="a`" d="M46.79,226.83l207.3-2.01c3.22-.03,3.22-5.03,0-5l-207.3,2.01c-3.22,.03-3.22,5.03,0,5h0Z"/><path class="a`" d="M36.14,137.89l207.3-2.01c3.22-.03,3.22-5.03,0-5l-207.3,2.01c-3.22,.03-3.22,5.03,0,5h0Z"/><path class="a`" d="M398.57,219.26l112.01-2.01c3.21-.06,3.22-5.06,0-5l-112.01,2.01c-3.21,.06-3.22,5.06,0,5h0Z"/><path class="a`" d="M70.43,180.68l207.3-2.01c3.22-.03,3.22-5.03,0-5l-207.3,2.01c-3.22,.03-3.22,5.03,0,5h0Z"/><path class="a`" d="M60.26,272.98l207.3-2.01c3.22-.03,3.22-5.03,0-5l-207.3,2.01c-3.22,.03-3.22,5.03,0,5h0Z"/></g><path class="s" d="M76.31,92.88V357.55h27.1V65.98h-.2c-14.86,0-26.9,12.04-26.9,26.9Z"/><path class="a`" d="M36.14,137.89l207.3-2.01c3.22-.03,3.22-5.03,0-5l-207.3,2.01c-3.22,.03-3.22,5.03,0,5h0Z"/><path class="p" d="M478.24,136.04l-.23,136.56-.48,7.97-3.43,48.53c-.37,5.18-4.64,9.22-9.84,9.29l-65.7,.9v53.68l-8.6,.13,.13-62.56,66.47-.82,9.77-17.36,.92-176.44,11,.12Z"/><path class="a`" d="M391.97,181.68l112.01-2.01c3.21-.06,3.22-5.06,0-5l-112.01,2.01c-3.21,.06-3.22,5.06,0,5h0Z"/><path class="a`" d="M388.13,258.07l112.01-2.01c3.21-.06,3.22-5.06,0-5l-112.01,2.01c-3.21,.06-3.22,5.06,0,5h0Z"/><path class="a`" d="M398.57,219.26l112.01-2.01c3.21-.06,3.22-5.06,0-5l-112.01,2.01c-3.21,.06-3.22,5.06,0,5h0Z"/><path d="M159.4,422.26l207.3-2.01c3.22-.03,3.22-5.03,0-5l-207.3,2.01c-3.22,.03-3.22,5.03,0,5h0Z"/><path class="u" d="M387.03,340.99l-31.23,.21-1.21,104.6c0,5.1-4.48,9.24-10,9.24H91.09v-22.93l252.41,.48-.23-126.88h43.66l.1,14.23v21.05Z"/><path d="M159.4,422.26l207.3-2.01c3.22-.03,3.22-5.03,0-5l-207.3,2.01c-3.22,.03-3.22,5.03,0,5h0Z"/><path class="a`" d="M70.43,180.68l207.3-2.01c3.22-.03,3.22-5.03,0-5l-207.3,2.01c-3.22,.03-3.22,5.03,0,5h0Z"/><path class="a`" d="M46.79,226.83l207.3-2.01c3.22-.03,3.22-5.03,0-5l-207.3,2.01c-3.22,.03-3.22,5.03,0,5h0Z"/><path class="s" d="M103.41,65.98l209.48,.1c1.74,.01,3.14,1.42,3.14,3.16v6.6l-212.61,.46v-10.32Z"/><path class="a`" d="M60.85,272.98l207.3-2.01c3.22-.03,3.22-5.03,0-5l-207.3,2.01c-3.22,.03-3.22,5.03,0,5h0Z"/><rect class="f" x="92.35" y="77.28" width="251.15" height="365.77" rx="20" ry="20"/><path class="g" d="M302.58,96.1h-41.47c-2.76,0-4.99,2.04-4.99,4.56v11.17c0,2.52-2.23,4.56-4.99,4.56h-65.57c-2.76,0-4.99-2.04-4.99-4.56v-11.17c0-2.52-2.23-4.56-4.99-4.56h-42.33c-11.02,0-19.96,8.17-19.96,18.24V407.78c0,10.07,8.94,18.24,19.96,18.24h169.34c11.02,0,19.96-8.17,19.96-18.24V114.34c0-10.07-8.94-18.24-19.96-18.24Z"/><path class="y" d="M252.21,119.47s-2.73,131.22-135.15,163.27l-.36,126.65c0,9.82,10.79,13.49,15.17,13.49h171.81c9.29,0,15.52-8.56,15.44-18.43V116.18c-.08-9.44-3.98-16.4-14.59-16.85l-45.6-.08,.19,13.81c-.09,3.4-3.08,6.19-6.91,6.41h0Z"/><rect class="k" x="150.89" y="128.84" width="312.23" height="196.97" rx="10" ry="10"/><circle class="b" cx="218.62" cy="394.81" r="18.41"/><path class="ab" d="M155.86,316.32c0,2.76,1.47,4.97,4.23,4.97l293.88-.67c2.76,0,4.16-2.78,4.16-5.54V138.95c0-2.77-2.81-5.57-5.58-5.56l-203.85,.5s-31.89,93.85-92.83,128.23v54.2Z"/><rect class="e" x="200.21" y="157.92" width="60.47" height="43.19" rx="5" ry="5"/><rect class="j" x="315.88" y="170.83" width="13" height="24.03" rx="5" ry="5"/><text class="aa" transform="translate(313.06 304.63)"><tspan x="0" y="0">PAY</tspan></text><rect class="j" x="354.59" y="170.83" width="13" height="24.03" rx="5" ry="5"/><rect class="j" x="378.68" y="170.83" width="13" height="23.78" rx="5" ry="5"/><rect class="j" x="423.87" y="170.83" width="13" height="23.78" rx="5" ry="5"/><path class="c" d="M153.81,237.9h80.73c11.04,0,20,8.96,20,20v11.51c0,11.04-8.96,20-20,20h-80.73v-51.51h0Z"/><path class="t" d="M237.73,160.44s-5.99,15.73-20.64,38.2h38.69c1.25,0,2.26-1.01,2.26-2.26v-33.94c0-1.1-.9-2-2-2h-18.31Z"/><ellipse class="o" cx="220.63" cy="179.51" rx="7.73" ry="6.72"/><path class="n" d="M236.1,179.51c0,3.71-3.46,6.72-7.73,6.72s-7.73-3.01-7.73-6.72,3.46-6.72,7.73-6.72c1.07,0,2.08,.19,3.01,.53,2.78,1.02,4.72,3.41,4.72,6.19Z"/><path class="o" d="M213.79,182.64s-1.78-2.4-.14-6c0,0,1.54-2.78,4.27-3.31"/><path class="v" d="M231.7,173.33c3.28,1.73,5.86,5.31,3.51,9.31-.54,.92,.46-.87,0,0-1.89,3.59-7.53,4.33-9.99,3.03"/><path class="x" d="M184.4,240.18s-12.38,12.7-28.55,21.94l.41,24.62h81.29c11-1.57,14.49-12.47,14.49-15.21v-14.02c0-5.46-4.72-17.33-17.07-17.33h-50.58Z"/></svg>