<?xml version="1.0" encoding="UTF-8"?><svg id="a" xmlns="http://www.w3.org/2000/svg" viewBox="0 0 547.03 505.04"><defs><style>.b{fill:none;}.b,.c,.d,.e,.f,.g,.h,.i{stroke:#47261e;stroke-miterlimit:10;}.b,.f,.g,.h,.i{stroke-width:3px;}.j{fill:#f7931e;}.k{fill:#fcee9b;}.l{fill:#65707e;}.m{fill:#6c783e;}.n{fill:#99a8bd;}.o{fill:#b6934e;}.p{fill:#a6b75f;}.q,.e{fill:#47261e;}.c{fill:#fff;}.c,.d{stroke-width:10px;}.d{fill:#f7d162;}.f{fill:#e0f780;}.g{fill:#cce1fd;}.h{fill:red;}.i{fill:#f6c669;}</style></defs><path class="q" d="M442.17,89l-13.23,54.68c-1.39,5.82,2.62,8.6,5.41,5.01h0l14.66-57.53-6.84-2.16Z"/><rect class="f" x="2.53" y="64.5" width="316" height="295" rx="5" ry="5"/><path class="g" d="M545.53,140.64v157.49c0,1.37-.46,2.7-1.3,3.78l-68.64,87.86c-2.33,2.98-5.9,4.72-9.68,4.72h-80.38l-2.72-260h156.58c3.39,0,6.14,2.75,6.14,6.14Z"/><path class="l" d="M543.28,300.7c1.84-2.8,1.18-12.75-3-9.43l-51.64-15.95-10.07,5.21-4.98,109.22"/><path class="i" d="M90.53,296.5H389.53v202c0,2.76-2.24,5-5,5H95.53c-2.76,0-5-2.24-5-5v-202h0Z"/><path class="b" d="M545.04,293l-48.16-15.87c-7.69-2.54-16.48,1.13-17.7,7.39l-4.69,76.58"/><path d="M160.43,423.22l207.3-2.01c3.22-.03,3.22-5.03,0-5l-207.3,2.01c-3.22,.03-3.22,5.03,0,5h0Z"/><ellipse class="h" cx="447.53" cy="89" rx="23" ry="21.5"/><path class="p" d="M312.41,65.65l-155.8,.45-4.92,13.01s-61.12,47.96-72.07,89.34c-13.92,52.63-11.45,75.59-12.38,176.56l-63.22,.99,.06,9.58c0,1.76,.99,2.43,1.75,2.43H88.2c-6.45-70.59-17.74-341.44,229.79-265.58l-.97-23.44c0-2.9-1.84-3.35-4.61-3.35Z"/><polygon class="m" points="170.99 66.05 165.53 80.35 208.36 65.94 170.99 66.05"/><path class="q" d="M175.41,18.88l-13.23,54.68c-1.39,5.82,2.62,8.6,5.41,5.01h0l14.66-57.53-6.84-2.16Z"/><ellipse class="h" cx="178.53" cy="23" rx="23" ry="21.5"/><path class="q" d="M37.17,137.84l207.3-2.01c3.22-.03,3.22-5.03,0-5l-207.3,2.01c-3.22,.03-3.22,5.03,0,5h0Z"/><polygon class="m" points="223.2 65.42 222.07 75.78 271.82 75.78 271.82 65.91 223.2 65.42"/><path class="q" d="M71.47,180.64l207.3-2.01c3.22-.03,3.22-5.03,0-5l-207.3,2.01c-3.22,.03-3.22,5.03,0,5h0Z"/><path class="q" d="M61.29,272.93l207.3-2.01c3.22-.03,3.22-5.03,0-5l-207.3,2.01c-3.22,.03-3.22,5.03,0,5h0Z"/><path class="q" d="M47.83,226.78l207.3-2.01c3.22-.03,3.22-5.03,0-5l-207.3,2.01c-3.22,.03-3.22,5.03,0,5h0Z"/><path class="n" d="M499.07,205.22c-1.83-43.38-25.25-63.45-30.7-69.2l-27.41,.04c99.61,101.67-33.93,159.32-33.93,159.32l.44,66.56c30.96-.99,39,22.91,40.84,31.07h14.34c-1.08-36.05-42.62-44.27-42.62-44.27v-43.81c79.36-16.73,79.04-99.72,79.04-99.72Z"/><path class="q" d="M389.27,258.03l112.01-2.01c3.21-.06,3.22-5.06,0-5l-112.01,2.01c-3.21,.06-3.22,5.06,0,5h0Z"/><path class="q" d="M394.01,181.64l112.01-2.01c3.21-.06,3.22-5.06,0-5l-112.01,2.01c-3.21,.06-3.22,5.06,0,5h0Z"/><path class="o" d="M387.02,423.01H93.02v21h85.35s17.07,37.29,62.45,35.37c45.38-1.92,57.22-35.37,57.22-35.37h88.98v-21Z"/><path class="q" d="M399.6,219.22l112.01-2.01c3.21-.06,3.22-5.06,0-5l-112.01,2.01c-3.21,.06-3.22,5.06,0,5h0Z"/><polygon class="j" points="219.77 434.01 307.54 434.15 255.82 475.03 212.31 442.09 219.77 434.01"/><path class="e" d="M216.13,434.51s9.03,26.56,35.1,26.56c0,0,25.07,2.04,38.11-26.56h16.05s-9.14,37.77-53.66,40.87c0,0-36.01,2.94-53.66-40.87h18.05Z"/><path class="d" d="M205.98,80.36s-104.05,20.08-116.45,136.18v146.24s-39.45-1.44-42.4,34.65c0,0-3.89,36.11,39.06,37.09H406.43s26.79,2.73,38.06-19.45c4.01-7.9,4.83-17.03,2.81-25.66-2.9-12.36-11.94-29.38-39.78-29.08l-.46-70.79s-87.7-.63-88.33-75.59c-.55-65.43,50.95-79.71,50.95-79.71,0,0-48.68-76.91-163.7-53.88Z"/><path class="q" d="M220.17,79.05l9.66-1.56s-1.08-21.25,17.14-23.42c.11-.01,.22-.02,.33-.03,1.83-.05,16.83,.2,17.44,23.26l10.31,1.98s1.99-33.07-27.83-34.73c0,0-28.2-2.36-27.05,34.5Z"/><ellipse class="c" cx="400.52" cy="208.01" rx="83.5" ry="85"/><path class="q" d="M414.71,157.15l-3.03-.51c-2.93-.49-5.7,1.4-6.17,4.23l-7.33,43.6c-.31,1.84-1.62,3.37-3.44,4l-42.61,14.8c-2.81,.98-4.23,4-3.14,6.71l1.11,2.77c1.07,2.66,4.14,4.03,6.9,3.07l50.12-17.47c1.81-.63,3.12-2.16,3.43-4l8.61-51.18c.48-2.83-1.52-5.52-4.45-6.01Z"/><path class="e" d="M118.64,365.51h85.77c1.17,0,2.11-1.06,2.11-2.37v-3.27c0-1.31-.95-2.37-2.11-2.37H118.64c-1.17,0-2.11,1.06-2.11,2.37v3.27c0,1.31,.95,2.37,2.11,2.37Z"/><path class="e" d="M228.52,359.88v3.27c0,1.31,.76,2.37,1.71,2.37h31.59c.94,0,1.71-1.06,1.71-2.37v-3.27c0-1.31-.76-2.37-1.71-2.37h-31.59c-.94,0-1.71,1.06-1.71,2.37Z"/><path class="k" d="M94.19,218.91l.49,29.69c19.81,10.44,46.41,23.64,75.89,23.64,63.08,0,103.06-41.03,103.06-105.55,0-45.26-13.15-72.44-46.1-84.64-3.51,.53-12.68,1.16-16.32,1.89,0,0-108.17,17.97-117.02,134.97Z"/></svg>